<?xml version="1.0" standalone="no"?>
<!DOCTYPE svg PUBLIC "-//W3C//DTD SVG 20010904//EN"
 "http://www.w3.org/TR/2001/REC-SVG-20010904/DTD/svg10.dtd">
<svg version="1.0" xmlns="http://www.w3.org/2000/svg"
 width="512.000000pt" height="512.000000pt" viewBox="0 0 512.000000 512.000000"
 preserveAspectRatio="xMidYMid meet">
<metadata>
Created by potrace 1.14, written by Peter Selinger 2001-2017
</metadata>
<g transform="translate(0.000000,512.000000) scale(0.100000,-0.100000)"
fill="#000000" stroke="none">
<path d="M0 2560 l0 -2560 2560 0 2560 0 0 2560 0 2560 -2560 0 -2560 0 0
-2560z m2672 1530 c340 -28 568 -128 721 -315 61 -74 139 -233 166 -339 52
-200 56 -260 56 -881 0 -508 -2 -594 -18 -693 -77 -488 -300 -729 -755 -819
-75 -14 -173 -17 -709 -20 l-623 -4 0 170 0 171 130 0 130 0 -2 1198 -3 1197
-127 3 -128 3 0 169 0 170 523 0 c287 0 575 -5 639 -10z"/>
<path d="M2140 2560 l0 -1200 213 0 c310 0 439 19 575 86 186 91 281 262 311
559 14 142 14 968 0 1110 -21 213 -71 343 -171 451 -72 77 -181 135 -298 160
-88 18 -311 33 -497 34 l-133 0 0 -1200z"/>
</g>
</svg>
